<svg width="427" height="216" viewBox="0 0 427 216" fill="none" xmlns="http://www.w3.org/2000/svg">
<g clip-path="url(#clip0_993_514)">
<path d="M339.11 6.10969C351.805 0.160393 366.309 -0.946986 380.103 0.672078C392.744 2.1995 405.348 7.40036 413.958 17.0307C420.76 24.4693 424.119 34.4586 424.867 44.3944C413.422 44.3944 401.971 44.3944 390.515 44.3944C390.163 39.4615 387.874 34.8684 384.149 31.6176C378.332 26.4473 370.019 25.3246 362.538 26.2258C356.431 26.9895 350.324 30.5789 348.149 36.5664C346.156 42.1873 346.164 49.2593 350.439 53.8568C356.042 60.0352 364.309 62.418 371.95 65.007C382.447 68.2756 393.08 71.2235 403.058 75.8745C410.098 79.1742 416.151 84.2613 420.615 90.6294C425.653 97.961 426.959 107.21 426.447 115.923C426.005 122.589 424.049 129.066 420.727 134.862C417.406 140.657 412.806 145.618 407.279 149.366C394.989 157.95 379.408 160.211 364.744 159.081C350.492 158.019 335.881 153.108 325.736 142.676C317.95 134.863 313.843 123.904 313.774 112.937H347.24C347.729 118.192 349.462 123.538 353.309 127.31C358.378 132.534 366.08 134.008 373.095 133.565C378.92 133.29 384.989 131.526 389.172 127.257C395.18 121.453 395.958 110.952 390.775 104.384C385.813 98.2741 378.141 95.7004 370.927 93.4169C358.79 89.7206 346.4 86.5436 335.049 80.8005C325.744 75.676 317.675 67.1072 315.476 56.4534C313.316 46.1739 313.95 35.0161 318.667 25.5079C322.904 16.9009 330.438 10.1497 339.11 6.10969Z" fill="white"/>
<path d="M0 2.01611C30.0919 2.01611 60.1813 2.01611 90.2681 2.01611C90.2681 10.5086 90.2681 19.0036 90.2681 27.5011H31.298C31.298 40.4536 31.298 53.4036 31.298 66.351H83.5963C83.5963 74.6194 83.5963 82.8904 83.5963 91.1639H31.298C31.298 104.88 31.298 118.596 31.298 132.313C50.9573 132.313 70.614 132.313 90.2681 132.313V157.805H0C0 105.878 0 53.9484 0 2.01611Z" fill="white"/>
<path d="M198.651 67.4049C204.873 65.1138 212.315 69.6426 213.155 76.2105C214.361 82.4118 209.338 88.8652 203.048 89.1554C200.322 89.3809 197.608 88.5976 195.421 86.9541C193.234 85.3105 191.725 82.9211 191.182 80.2389C190.639 77.5567 191.099 74.7684 192.474 72.4027C193.849 70.0371 196.045 68.2587 198.644 67.4049H198.651Z" fill="white"/>
<path d="M237.583 34.6496C246.998 25.0727 256.461 15.5441 265.972 6.06396C276.13 14.9316 284.341 25.8086 290.088 38.0092C295.835 50.2098 298.992 63.4692 299.362 76.9515C300.4 105.713 287.698 134.428 265.972 153.246C262.82 150.008 259.56 146.877 256.453 143.608C278.491 126.043 288.736 96.2581 285.224 68.6729C283.333 52.6665 276.667 37.6011 266.094 25.4393C262.827 28.4941 259.659 31.7323 256.484 34.9246C266.064 46.7773 272.049 61.6544 272.438 76.9744C273.24 98.3583 263.598 119.643 247.667 133.81C246.903 134.741 246.14 133.252 245.522 132.878C236.415 123.713 227.415 114.549 218.216 105.484C223.941 101.054 228.957 95.2958 230.964 88.201C233.529 79.9453 231.59 70.9869 227.59 63.5255C224.583 66.5803 221.483 69.5435 218.56 72.69C216.808 68.3582 213.626 64.7572 209.544 62.4868C215.598 56.423 221.666 50.405 227.697 44.2953C238.384 52.2226 245.529 65.0376 245.537 78.456C245.835 88.117 242.483 97.5488 237.331 105.606C240.537 108.661 243.537 111.937 246.72 115.03C255.644 104.01 260.392 89.5604 259.01 75.3783C257.674 59.6229 249.354 44.9979 237.583 34.6496Z" fill="#00B3FF"/>
<path d="M114.421 37.2158C120.157 25.3497 128.236 14.7685 138.169 6.10986C147.62 15.6486 157.124 25.1262 166.529 34.7108C154.956 44.8834 146.727 59.1495 145.154 74.6223C143.528 89.0869 148.307 103.827 157.368 115.099C160.551 111.952 163.666 108.745 166.765 105.53C160.658 96.2352 157.406 84.9094 158.887 73.7974C160.307 62.0974 167.025 51.4284 176.338 44.3641C182.407 50.4738 188.552 56.4231 194.605 62.5709C190.524 64.8034 187.38 68.4265 185.742 72.7817C182.689 69.6811 179.636 66.5957 176.498 63.5561C172.681 70.8648 170.689 79.5176 172.994 87.6282C174.887 94.9675 180.002 100.993 185.933 105.491C176.338 115.16 166.612 124.706 157.093 134.413C142.353 121.483 132.742 102.65 131.75 82.9849C130.681 65.6716 136.765 48.3048 147.658 34.917C144.513 31.7018 141.253 28.6087 138.078 25.4317C126.093 38.9265 119.299 56.6674 118.383 74.6299C116.856 100.42 127.223 127.326 147.681 143.616C144.498 146.8 141.398 150.077 138.185 153.231C122.044 139.169 110.974 120.187 106.68 99.2096C102.386 78.2326 105.106 56.4249 114.421 37.147V37.2158Z" fill="#00B3FF"/>
<path d="M2.52676 183.29H7.44284C7.44284 190.729 7.44284 198.172 7.44284 205.621H17.9391C17.9391 207.011 17.9391 208.408 17.9391 209.806C12.789 209.842 7.63623 209.842 2.48096 209.806C2.55729 200.978 2.51913 192.141 2.52676 183.29Z" fill="white"/>
<path d="M138.116 184.627C140.047 182.603 143.062 182.572 145.643 182.916L145.505 185.887C144.262 186.022 143.035 186.277 141.841 186.651C140.459 187.674 140.78 189.591 140.505 191.08C142.162 191.08 143.818 191.08 145.482 191.08C145.482 192.226 145.482 193.371 145.482 194.517H140.803C140.803 199.596 140.803 204.682 140.803 209.791H136.307C136.307 204.804 136.307 199.863 136.307 194.845C134.2 194.616 133.039 193.234 133.299 191.088H136.169C136.375 188.873 136.375 186.345 138.116 184.627Z" fill="white"/>
<path d="M150.864 185.238C153.528 182.557 157.62 182.512 161.132 182.947C161.055 183.978 160.979 185.009 160.91 186.048C158.925 186.261 156.796 186.101 154.994 187.071C153.467 187.796 153.467 189.698 152.941 191.065C156.872 191.195 160.811 191.126 164.742 191.142V209.852H160.307V194.578H153.437C153.437 199.67 153.437 204.761 153.437 209.852H148.963C148.963 204.865 148.963 199.878 148.963 194.899C146.818 194.678 145.765 193.295 146.032 191.18L148.78 191.119C149.047 189.057 149.254 186.743 150.864 185.238Z" fill="white"/>
<path d="M188.59 183.107C190.246 181.908 192.765 183.397 192.849 185.353C193.17 187.644 190.078 189.477 188.269 187.888C187.885 187.605 187.578 187.229 187.377 186.796C187.176 186.363 187.087 185.886 187.119 185.41C187.151 184.933 187.302 184.472 187.559 184.07C187.817 183.667 188.171 183.336 188.59 183.107Z" fill="white"/>
<path d="M283.56 184.329C287.538 182.037 292.553 183.152 296.194 185.604C295.507 186.727 294.812 187.834 294.08 188.918C291.744 187.742 289.102 186.139 286.446 187.261C284.423 187.926 283.644 190.958 285.438 192.302C288.56 194.417 293.072 194.325 295.438 197.541C298.026 201.497 296.011 207.53 291.622 209.233C287.263 211.074 282.102 209.638 278.751 206.461C279.454 205.361 280.171 204.274 280.904 203.2C283.492 204.437 286.141 206.552 289.202 205.674C291.828 205.292 293.072 201.428 290.896 199.771C288.011 197.861 284.026 197.999 281.56 195.402C278.576 192.157 279.675 186.345 283.56 184.329Z" fill="white"/>
<path d="M323.408 184.451C325.355 182.549 328.271 182.618 330.79 182.924C330.713 183.924 330.645 184.932 330.576 185.94C329.263 186.223 327.797 186.154 326.645 186.925C325.668 188.079 325.881 189.728 325.591 191.126L330.607 191.164C330.607 192.302 330.607 193.455 330.607 194.585H325.927C325.927 199.677 325.927 204.768 325.927 209.86H321.454C321.454 204.88 321.454 199.931 321.454 194.914C320.576 194.621 319.715 194.282 318.874 193.898L318.538 191.195L321.339 191.133C321.461 188.789 321.53 186.123 323.408 184.451Z" fill="white"/>
<path d="M115.131 183.489H131.688C131.688 184.764 131.688 186.04 131.688 187.307H120.085C120.085 189.721 120.085 192.134 120.085 194.547C123.139 194.547 126.192 194.547 129.2 194.547C129.2 195.815 129.2 197.09 129.2 198.366C126.146 198.366 123.093 198.366 120.085 198.366C120.085 200.912 120.085 203.457 120.085 206.003C123.971 206.056 127.849 206.003 131.734 206.056C131.734 207.317 131.734 208.577 131.734 209.875C126.215 209.875 120.696 209.875 115.177 209.875C115.141 201.067 115.126 192.271 115.131 183.489Z" fill="white"/>
<path d="M334.538 191.134C334.879 189.168 335.24 187.213 335.622 185.268L338.79 185.192V191.118H343.652C343.652 192.256 343.652 193.409 343.652 194.547H338.797C338.897 198.366 338.523 202.184 339.019 205.957C340.026 207.065 341.484 206.133 342.706 206.018C343.215 206.909 343.724 207.81 344.233 208.722C342.278 209.485 340.194 210.356 338.065 209.921C337.128 209.781 336.265 209.333 335.61 208.649C334.955 207.965 334.546 207.083 334.446 206.14C334.11 202.284 334.385 198.412 334.309 194.547H331.698C331.622 193.585 331.553 192.623 331.5 191.661L334.538 191.134Z" fill="white"/>
<path d="M25.4051 191.172C29.283 189.973 34.2067 191.057 36.3365 194.754C37.3151 196.539 37.8064 198.55 37.7608 200.585C37.7153 202.62 37.1345 204.608 36.0769 206.347C33.5044 210.265 27.7791 211.006 23.8173 208.905C17.1989 205.285 17.9012 193.326 25.4051 191.172ZM26.0539 194.823C23.4661 196.839 23.6951 200.757 24.405 203.628C25.1684 207.042 30.4585 207.683 32.1838 204.728C33.3159 202.256 33.4579 199.443 32.5807 196.869C31.7792 194.212 28.2448 193.41 26.0539 194.823Z" fill="white"/>
<path d="M46.031 191.164C49.9165 189.965 54.8708 191.073 56.9776 194.807C57.9435 196.591 58.4243 198.597 58.372 200.624C58.3198 202.652 57.7363 204.631 56.6799 206.362C54.0998 210.272 48.3821 210.998 44.4203 208.905C37.8095 205.278 38.5194 193.31 46.031 191.164ZM46.7943 194.746C44.0691 196.716 44.3058 200.772 45.0462 203.681C45.8859 207.08 51.1532 207.668 52.8326 204.682C53.4258 203.383 53.7467 201.976 53.7756 200.548C53.8045 199.121 53.5407 197.702 53.0005 196.38C51.9547 194.089 48.8554 193.57 46.7791 194.746H46.7943Z" fill="white"/>
<path d="M61.4667 191.035C63.1767 191.134 65.3828 190.745 65.8179 192.944C67.4439 191.554 69.505 190.225 71.7645 190.844C73.3981 191.073 74.2531 192.6 75.2073 193.754C76.9783 191.669 79.6196 190.218 82.4288 190.821C85.3906 191.096 87.4823 193.922 87.5128 196.793C87.7265 201.139 87.5128 205.484 87.5968 209.837H83.1158C82.9708 205.255 83.4288 200.673 82.8792 196.159C82.1158 193.104 77.1081 193.784 76.9173 196.824C76.5737 201.146 76.8715 205.492 76.7875 209.807H72.276C72.2378 205.706 72.36 201.597 72.276 197.488C72.3294 196.121 71.734 194.494 70.2073 194.25C68.5813 193.647 67.2225 195.067 65.9324 195.816C66.0011 200.467 65.9324 205.125 65.9859 209.776L61.4896 209.822C61.4667 203.575 61.4514 197.305 61.4667 191.035Z" fill="white"/>
<path d="M93.9403 191.615C97.2685 189.881 101.246 190.851 104.146 192.966C103.658 193.791 103.169 194.624 102.688 195.456C100.276 194.692 96.2533 192.76 95.0166 196.136C96.093 198.916 99.8411 198.488 102.017 200.038C105.498 201.825 104.627 207.271 101.459 208.928C97.9021 210.929 93.5051 210.02 90.2074 207.92C90.8563 207.019 91.5204 206.133 92.1845 205.254C94.1158 206.079 96.1311 207.546 98.3373 206.828C99.7724 206.56 100.849 204.399 99.4518 203.422C97.2151 201.894 94.1922 201.894 92.1922 199.97C89.8333 197.51 90.841 192.959 93.9403 191.615Z" fill="white"/>
<path d="M170.742 193.677C174.07 189.698 180.452 189.943 184.223 193.181L182.445 195.647C180.086 194.563 176.956 193.143 174.811 195.365C172.59 198.198 172.567 203.002 175.154 205.644C177.445 207.622 180.391 206.103 182.506 204.713L184.468 207.088C181.414 209.99 176.506 211.105 172.765 208.867C167.857 205.667 167.345 198.107 170.742 193.677Z" fill="white"/>
<path d="M200.216 191.814C203.758 189.882 208.918 190.447 211.239 193.983C212.705 196.014 212.712 198.611 212.628 201.009C208.399 201.116 204.17 201.009 199.949 201.108C200.537 202.956 200.926 205.301 202.964 206.118C205.567 207.409 208.308 205.859 210.644 204.789L212.666 207.08C211.154 208.428 209.311 209.35 207.327 209.752C205.342 210.155 203.286 210.023 201.369 209.372C194.338 206.844 193.643 195.327 200.216 191.814ZM200.048 198.321C203.005 198.412 205.964 198.412 208.926 198.321C208.384 196.495 207.537 194.235 205.247 194.204C202.529 193.654 200.766 196.022 200.048 198.321Z" fill="white"/>
<path d="M216.43 191.042C218.163 191.119 220.369 190.752 220.789 192.997C222.689 191.561 224.98 190.294 227.46 190.813C230.43 191.096 232.491 193.952 232.56 196.808C232.758 201.146 232.56 205.492 232.636 209.837H228.155C228.155 206.019 228.201 202.2 228.155 198.336C228.109 196.976 228.048 195.181 226.628 194.517C224.613 193.387 222.59 194.945 220.918 195.968C220.957 200.55 220.918 205.171 220.957 209.776L216.46 209.829C216.43 203.582 216.415 197.312 216.43 191.042Z" fill="white"/>
<path d="M237.903 193.7C241.216 189.698 247.613 189.935 251.392 193.173L249.621 195.647C247.254 194.57 244.117 193.135 241.941 195.38C239.728 198.198 239.712 203.017 242.262 205.629C244.552 207.622 247.522 206.11 249.636 204.712L251.613 207.08C248.56 209.997 243.636 211.112 239.896 208.867C235.048 205.659 234.521 198.129 237.903 193.7Z" fill="white"/>
<path d="M304.805 191.172C308.683 189.965 313.622 191.065 315.744 194.784C316.768 196.646 317.254 198.757 317.148 200.88C317.041 203.003 316.346 205.054 315.141 206.805C311.507 211.486 303.034 211.082 300.087 205.85C297.202 200.894 298.774 192.875 304.805 191.172ZM305.5 194.792C302.851 196.785 303.08 200.764 303.805 203.651C304.614 207.034 309.82 207.675 311.561 204.758C312.176 203.448 312.511 202.025 312.545 200.579C312.579 199.132 312.311 197.694 311.759 196.357C310.69 194.066 307.53 193.554 305.5 194.792Z" fill="white"/>
<path d="M375.699 193.616C378.523 191.439 382.187 190.08 385.76 190.974C387.051 191.338 388.197 192.095 389.038 193.141C389.88 194.186 390.375 195.468 390.454 196.808C390.691 201.184 390.454 205.576 390.546 209.959C388.752 210.043 386.943 209.745 386.508 207.729C384.111 209.593 380.905 210.784 377.935 209.6C374.79 208.501 374.004 203.804 376.569 201.704C379.271 199.412 382.989 199.306 386.332 199.023C385.989 197.496 386.332 195.319 384.607 194.509C382.256 193.326 380.088 195.418 377.851 195.877C376.783 195.625 376.431 194.288 375.699 193.616ZM380.225 203.048C378.744 203.895 379.126 206.591 380.867 206.866C382.836 207.431 384.607 206.171 386.21 205.201C386.21 204.018 386.157 202.842 386.134 201.665C384.141 201.986 381.951 201.902 380.225 203.048Z" fill="white"/>
<path d="M398.829 194.066C400.638 191.638 403.501 189.965 406.577 191.103C406.325 192.424 406.081 193.753 405.814 195.074C403.325 194.677 400.256 194.99 399.31 197.74C398.882 201.749 399.249 205.805 399.134 209.837H394.661C394.661 203.582 394.661 197.335 394.661 191.08C395.913 191.126 397.165 191.172 398.432 191.233C398.554 191.943 398.737 193.356 398.829 194.066Z" fill="white"/>
<path d="M409.539 195.052C412.081 190.187 419.722 189.148 423.34 193.326C425.211 195.403 425.302 198.336 425.31 200.963C421.081 201.108 416.852 201.016 412.63 201.047C413.066 203.017 413.592 205.453 415.775 206.187C418.333 207.355 420.928 205.797 423.218 204.751C423.921 205.568 424.608 206.408 425.272 207.271C421.707 210.059 416.478 211.09 412.455 208.676C408.104 205.866 407.195 199.451 409.539 195.052ZM412.592 198.328C415.564 198.404 418.539 198.404 421.516 198.328C421.005 196.342 419.875 194.059 417.47 194.158C414.852 193.83 413.371 196.182 412.623 198.328H412.592Z" fill="white"/>
<path d="M187.697 191.126H192.178C192.178 197.363 192.178 203.6 192.178 209.837H187.697V191.126Z" fill="white"/>
<path d="M251.949 191.133H256.621C258.568 195.082 259.919 199.29 261.782 203.284C263.385 199.305 264.835 195.273 266.415 191.286C267.942 191.194 269.423 191.141 270.95 191.11C267.98 198.22 264.896 205.285 261.942 212.403C261.484 213.619 260.89 214.78 260.171 215.862C258.774 216.015 257.362 215.992 255.965 216.03C257.133 213.533 258.308 211.051 259.461 208.553C256.972 202.734 254.468 196.927 251.949 191.133Z" fill="white"/>
<path d="M345.088 191.104C346.614 191.104 348.141 191.149 349.668 191.188C350.981 195.77 352.256 200.352 353.263 204.988C354.653 200.535 355.798 195.991 357.447 191.63C358.531 190.813 361.324 190.508 361.699 192.31C363.088 196.457 364.195 200.711 365.447 204.881C366.607 200.299 367.821 195.716 369.225 191.134C370.653 191.134 372.088 191.134 373.538 191.134C371.579 197.371 369.615 203.611 367.645 209.853C366.241 209.853 364.836 209.853 363.439 209.791C362.05 205.362 360.607 200.948 359.324 196.488C358.019 200.978 356.592 205.431 355.08 209.86H350.988C349.027 203.583 347.011 197.358 345.088 191.104Z" fill="white"/>
</g>
<defs>
<clipPath id="clip0_993_514">
<rect width="426.6" height="216" fill="white"/>
</clipPath>
</defs>
</svg>
